<?xml version="1.0" standalone="no"?>
<!DOCTYPE svg PUBLIC "-//W3C//DTD SVG 20010904//EN"
 "http://www.w3.org/TR/2001/REC-SVG-20010904/DTD/svg10.dtd">
<svg version="1.0" xmlns="http://www.w3.org/2000/svg"
 width="745.000000pt" height="745.000000pt" viewBox="0 0 745.000000 745.000000"
 preserveAspectRatio="xMidYMid meet">
<metadata>
Created by potrace 1.14, written by Peter Selinger 2001-2017
</metadata>
<g transform="translate(0.000000,745.000000) scale(0.100000,-0.100000)"
fill="#000000" stroke="none">
<path d="M3395 6291 c3 -6 0 -11 -7 -11 -9 0 -9 -3 2 -10 8 -5 10 -10 5 -10
-6 0 -17 6 -24 13 -7 6 -11 8 -9 2 2 -5 -1 -11 -7 -11 -5 -1 -9 2 -8 7 2 4 -4
6 -12 3 -8 -4 -15 -9 -15 -13 0 -4 -9 -8 -20 -9 -45 -4 -50 -6 -50 -19 0 -9
-5 -11 -12 -6 -19 11 -39 13 -32 2 3 -5 9 -7 13 -5 4 3 8 -1 8 -9 0 -10 -4
-12 -12 -5 -7 5 -15 7 -18 3 -4 -3 -7 2 -7 12 0 10 -3 15 -7 11 -5 -4 -8 -12
-8 -17 0 -5 -4 -9 -10 -8 -5 0 -9 8 -7 17 2 14 1 15 -7 2 -5 -8 -7 -18 -4 -24
4 -5 -1 -7 -10 -3 -10 3 -17 2 -17 -3 0 -5 -7 -7 -15 -4 -8 4 -13 9 -11 13 3
4 -6 7 -20 7 -17 0 -23 -4 -19 -14 7 -18 -18 -42 -45 -42 -12 0 -18 -4 -15
-10 3 -6 -1 -7 -10 -4 -20 8 -48 -15 -41 -33 4 -9 1 -11 -6 -7 -8 5 -9 2 -4
-11 5 -15 4 -16 -9 -5 -8 7 -13 16 -10 20 7 11 -16 7 -40 -8 -16 -9 -17 -13
-7 -20 11 -8 11 -10 -2 -15 -8 -3 -18 -1 -22 5 -7 11 -124 -106 -124 -124 0
-5 -4 -6 -10 -3 -5 3 -10 1 -10 -5 0 -6 -4 -9 -9 -6 -5 3 -11 -1 -15 -9 -3 -8
-12 -12 -21 -9 -8 3 -23 3 -32 0 -14 -6 -15 -9 -4 -15 25 -16 3 -29 -33 -21
-20 4 -36 4 -38 0 -2 -4 -14 -11 -27 -15 -15 -4 -21 -3 -17 3 3 5 0 12 -8 15
-8 3 -16 -2 -19 -14 -7 -26 3 -60 16 -52 6 3 7 1 3 -5 -5 -9 -13 -9 -27 -2
-10 6 -19 7 -18 3 4 -23 -2 -35 -17 -29 -8 3 -12 2 -9 -4 3 -6 2 -10 -4 -10
-6 0 -13 -11 -17 -25 -3 -14 -9 -25 -14 -25 -20 0 -47 -37 -43 -60 3 -24 3
-24 -12 -5 -9 11 -14 15 -11 8 3 -6 3 -18 0 -27 -6 -15 -8 -15 -20 1 -13 17
-14 17 -8 1 4 -11 1 -18 -6 -18 -6 0 -9 -4 -5 -9 3 -5 1 -12 -5 -16 -5 -3 -10
-1 -10 6 0 7 -13 -2 -29 -20 -16 -18 -34 -30 -40 -27 -5 4 -13 1 -17 -5 -4 -7
-3 -9 4 -5 6 3 13 2 17 -4 3 -5 1 -10 -5 -10 -7 0 -10 -6 -7 -14 4 -10 0 -14
-13 -11 -12 2 -21 -3 -25 -16 -4 -11 -11 -17 -16 -14 -5 4 -9 0 -9 -7 0 -7 -9
-19 -20 -26 -11 -7 -20 -20 -20 -30 0 -14 2 -15 10 -2 8 13 10 13 10 -1 0 -22
-31 -34 -42 -17 -6 9 -8 7 -6 -7 2 -11 -2 -20 -8 -20 -15 0 -44 -31 -37 -39 4
-3 1 -6 -5 -6 -8 0 -9 -7 -2 -24 5 -13 6 -27 3 -30 -9 -9 -25 -7 -19 2 2 4 0
14 -5 22 -7 11 -8 7 -5 -12 3 -15 0 -30 -5 -34 -5 -3 -7 -10 -4 -15 3 -5 -1
-6 -10 -3 -17 7 -17 -16 0 -28 6 -5 5 -8 -3 -8 -7 0 -10 -5 -6 -11 5 -8 1 -8
-14 0 -26 14 -40 -3 -15 -18 11 -6 13 -11 5 -11 -7 0 -10 -4 -7 -10 3 -5 1
-10 -5 -10 -6 0 -8 -4 -5 -10 6 -9 -8 -15 -29 -11 -5 1 -5 -4 1 -11 8 -10 7
-19 -7 -35 -9 -12 -20 -19 -23 -16 -4 3 -5 -4 -2 -15 2 -12 0 -24 -5 -27 -5
-3 -5 -19 0 -37 5 -17 7 -34 5 -39 -3 -4 -2 -9 2 -12 5 -2 3 -2 -4 -1 -6 2
-17 -4 -24 -12 -10 -12 -9 -13 5 -8 9 3 16 2 16 -4 0 -5 -10 -12 -21 -15 -20
-5 -20 -7 -5 -22 18 -19 21 -35 5 -35 -5 0 -7 6 -3 13 6 8 3 8 -9 -1 -9 -8
-21 -11 -27 -7 -6 4 -10 3 -9 -2 1 -4 0 -10 -1 -13 -5 -14 -8 -41 -3 -36 9 8
33 -21 33 -39 0 -12 -6 -16 -18 -13 -13 4 -18 -1 -18 -18 0 -12 4 -20 8 -18 5
3 5 10 2 16 -4 7 -2 8 4 4 13 -8 8 -24 -25 -83 -13 -24 -19 -43 -14 -43 13 0
8 -33 -8 -46 -11 -9 -11 -14 0 -32 10 -16 11 -27 4 -39 -6 -10 -10 -30 -10
-45 1 -19 -4 -28 -15 -28 -13 0 -13 -1 0 -10 16 -10 15 -11 -29 -14 -8 -1 -15
-9 -17 -19 -2 -14 1 -16 10 -7 19 15 39 -10 21 -27 -7 -6 -16 -10 -19 -7 -3 2
-4 1 -1 -3 3 -3 1 -11 -5 -17 -6 -8 -3 -12 9 -12 10 0 17 6 14 12 -2 7 1 15 7
19 7 4 10 0 8 -11 -2 -12 2 -18 10 -16 8 1 11 -2 7 -8 -3 -6 -11 -8 -16 -5 -8
6 -13 -9 -10 -29 3 -13 -20 -36 -30 -31 -16 10 -26 -78 -13 -122 6 -23 9 -44
6 -47 -3 -4 0 -6 7 -6 7 0 9 -5 5 -11 -3 -6 -3 -14 2 -18 28 -20 45 -51 39
-70 -3 -12 -10 -19 -15 -16 -16 10 -21 -15 -10 -55 6 -22 14 -40 19 -40 4 0 8
-6 9 -12 1 -7 3 -31 6 -52 4 -31 0 -44 -16 -61 -31 -32 -38 -79 -26 -157 4
-29 9 -59 10 -65 1 -7 4 -13 8 -13 4 0 6 -10 5 -22 -1 -13 2 -29 8 -35 5 -7 7
-13 4 -13 -3 0 -1 -15 4 -32 6 -18 12 -40 14 -48 2 -8 4 -15 5 -15 1 0 3 -11
4 -25 0 -14 5 -31 9 -37 5 -8 4 -13 -3 -13 -6 0 -8 -5 -4 -11 11 -18 11 -139
1 -139 -6 0 -6 -5 0 -12 5 -7 8 -24 6 -38 -6 -44 0 -102 19 -185 7 -27 12 -52
13 -55 0 -3 4 -11 9 -18 4 -7 6 -16 3 -18 -3 -3 1 -20 8 -38 11 -25 11 -36 3
-44 -9 -9 -9 -12 0 -12 8 0 9 -7 2 -25 -5 -14 -6 -25 -2 -25 4 0 8 -28 9 -61
0 -39 6 -65 15 -70 7 -5 10 -9 5 -9 -10 0 19 -55 45 -85 12 -13 25 -22 30 -19
4 3 8 0 8 -6 0 -14 67 -11 92 4 9 6 19 8 21 6 3 -3 7 -40 10 -83 4 -43 9 -82
11 -86 3 -4 6 -27 7 -50 2 -23 7 -45 11 -47 4 -3 8 -17 8 -32 0 -15 7 -48 15
-75 8 -26 12 -47 10 -47 -2 0 5 -21 16 -46 11 -26 20 -57 21 -70 1 -12 6 -20
10 -18 4 3 8 -4 8 -15 0 -11 5 -23 10 -26 6 -4 8 -11 5 -16 -4 -5 -1 -9 4 -9
6 0 10 -3 9 -7 -6 -23 56 -133 111 -199 38 -45 56 -74 54 -85 -2 -5 2 -9 8 -9
5 0 7 -5 4 -10 -3 -6 -1 -10 4 -10 6 0 11 -16 11 -36 0 -21 -4 -33 -10 -29 -5
3 -10 -1 -10 -10 0 -17 -38 -77 -52 -83 -4 -2 -8 -10 -8 -18 0 -8 -4 -14 -9
-14 -10 0 -27 -39 -23 -53 1 -5 -1 -6 -6 -3 -8 5 -57 -82 -54 -96 1 -5 -3 -8
-8 -8 -5 0 -9 -3 -8 -7 0 -5 -2 -17 -6 -28 -21 -55 -27 -72 -32 -95 -3 -14 -6
-30 -6 -37 -2 -14 -44 -35 -83 -40 -16 -1 -48 -6 -70 -9 -22 -4 -56 -8 -75
-10 -19 -1 -35 -3 -35 -5 0 -1 -16 -2 -35 -3 -19 -1 -41 -5 -48 -9 -7 -5 -12
-3 -12 4 0 10 -3 10 -11 2 -6 -6 -17 -9 -24 -7 -7 3 -16 1 -19 -5 -4 -6 -13
-8 -21 -4 -8 3 -15 1 -15 -4 0 -5 -6 -10 -12 -11 -7 0 -24 -3 -38 -7 -32 -8
-121 -15 -235 -19 -49 -2 -103 -6 -120 -10 -16 -3 -59 -6 -95 -7 -36 -2 -71
-8 -79 -13 -11 -8 -13 -8 -9 0 8 12 -80 13 -100 1 -6 -5 -12 -4 -12 1 0 11
-50 10 -68 -1 -6 -5 -12 -4 -12 0 0 5 -36 8 -80 8 -44 0 -80 -4 -80 -8 0 -5
-4 -5 -10 -2 -17 10 -50 14 -50 6 0 -4 -17 -8 -37 -8 -74 -1 -124 -6 -129 -15
-3 -4 -11 -5 -17 -1 -17 11 -77 11 -83 1 -3 -5 -11 -5 -17 0 -7 5 -30 8 -52 8
-22 -1 -54 2 -72 5 -18 4 -36 2 -42 -4 -8 -8 -11 -7 -11 2 0 8 -6 11 -16 7 -8
-3 -25 -1 -36 5 -16 9 -19 8 -13 -2 6 -9 3 -10 -11 -5 -10 4 -54 10 -96 12
l-78 4 0 -365 0 -365 3673 1 c2019 0 3665 3 3657 6 -8 3 -17 9 -20 12 -14 18
-190 86 -255 99 -24 4 -189 6 -305 2 -47 -1 -87 -1 -90 0 -3 1 -27 4 -55 7
-27 2 -58 9 -68 15 -15 8 -18 7 -11 -4 6 -10 5 -11 -7 -2 -8 7 -32 14 -54 17
-22 3 -51 8 -65 11 -14 3 -36 7 -50 10 -14 3 -38 8 -55 11 -16 4 -41 8 -55 10
-14 2 -25 4 -25 5 0 3 -57 9 -93 11 -17 0 -35 5 -38 10 -3 5 -11 6 -17 2 -16
-10 -67 -11 -73 -1 -3 5 -11 5 -17 1 -7 -4 -37 -8 -67 -10 -98 -4 -205 -15
-285 -29 -55 -10 -115 -11 -115 -2 0 5 -9 8 -19 8 -11 0 -23 5 -26 10 -3 6
-17 10 -30 10 -13 0 -26 4 -29 9 -6 8 -36 16 -101 25 -16 3 -41 9 -55 13 -14
5 -32 9 -40 9 -17 -1 -60 36 -60 52 0 6 -6 17 -14 24 -18 18 -51 81 -48 91 1
5 -2 6 -7 3 -5 -3 -14 8 -20 24 -5 17 -15 30 -20 30 -6 0 -11 6 -11 14 0 8
-10 22 -22 30 -12 9 -17 16 -10 16 12 0 10 3 -46 65 -12 14 -19 25 -15 25 4 0
0 5 -9 11 -10 5 -18 15 -18 20 0 15 -133 139 -149 139 -26 0 -37 150 -15 204
6 15 4 17 -7 11 -11 -7 -12 -6 -3 6 6 8 12 34 14 59 6 87 8 105 10 105 1 0 4
20 6 45 3 25 7 54 9 65 2 11 4 23 4 26 1 6 11 19 84 103 23 26 54 67 69 90 15
22 32 47 38 54 6 6 8 12 5 12 -3 0 4 9 15 20 12 12 18 25 15 29 -2 5 2 14 10
21 8 7 12 16 9 21 -3 5 0 9 5 9 6 0 10 3 9 8 -1 4 5 21 12 37 13 31 49 156 55
190 7 43 16 91 21 108 3 10 0 17 -8 17 -10 0 -10 2 -1 8 7 4 15 32 17 62 3 30
7 64 10 75 2 11 5 23 5 27 1 3 22 6 47 6 26 0 50 5 53 10 3 5 16 12 29 16 20
7 24 12 21 32 0 3 6 11 15 17 18 15 42 108 41 165 0 23 3 42 8 42 4 0 7 6 7
13 0 7 9 23 20 35 12 12 18 22 15 22 -3 0 0 12 8 28 21 40 37 94 31 103 -3 5
0 9 7 9 6 0 9 8 6 20 -3 11 -2 20 2 20 9 0 9 1 14 91 2 36 7 72 12 78 4 7 5
15 2 18 -3 3 3 27 13 54 11 27 17 49 15 49 -3 0 -1 8 4 18 36 68 60 347 33
390 -8 12 -10 22 -6 22 5 0 5 4 -1 8 -16 12 -39 56 -24 46 9 -5 10 -2 6 10 -4
10 -3 15 3 11 11 -7 32 29 22 41 -4 5 2 2 12 -6 18 -14 19 -14 6 10 -7 14 -9
21 -4 17 4 -4 14 3 22 15 9 16 12 17 7 4 -4 -15 -3 -17 8 -8 8 7 17 8 22 4 4
-4 6 0 3 8 -3 8 2 21 11 28 15 12 14 13 -1 9 -22 -7 -29 2 -18 24 7 12 6 19
-3 23 -6 4 -3 5 9 3 16 -3 20 1 19 17 -1 12 3 25 9 29 6 5 1 5 -11 2 -14 -4
-23 -2 -23 5 0 6 -5 8 -12 4 -7 -4 -8 -3 -4 4 4 6 12 9 19 6 8 -3 13 5 14 18
2 18 0 20 -7 8 -8 -13 -10 -12 -11 3 -1 9 -2 23 -3 30 -1 6 4 19 12 29 10 12
11 18 1 24 -8 4 -10 3 -5 -4 4 -7 3 -12 -2 -12 -6 0 -9 11 -8 24 0 13 4 22 9
19 15 -9 6 10 -10 23 -13 10 -14 13 -4 14 11 0 11 3 1 15 -11 13 -10 14 1 10
10 -4 15 2 16 15 1 12 -3 18 -9 14 -6 -4 -5 2 2 15 8 16 8 26 1 35 -7 9 -7 16
1 24 9 9 8 12 -4 12 -8 0 -22 7 -29 17 -13 15 -12 15 10 4 26 -14 24 -5 -8 33
-9 11 -11 16 -4 13 6 -4 14 -3 18 3 3 5 2 10 -2 10 -5 0 -10 11 -11 26 -1 14
2 23 7 20 4 -3 7 7 6 22 -1 15 -7 26 -12 25 -7 -1 -10 12 -8 32 2 22 -1 35 -8
35 -7 0 -6 4 3 10 9 6 10 10 3 10 -11 0 -9 42 3 61 2 4 0 11 -6 14 -8 5 -7 12
2 23 11 13 11 15 -4 10 -13 -6 -15 -2 -9 20 9 32 3 64 -10 57 -5 -3 -6 1 -3 9
3 8 0 25 -7 38 -11 21 -11 22 4 9 14 -11 13 -5 -4 34 -11 26 -19 56 -16 66 3
12 0 19 -9 19 -8 0 -14 7 -14 15 0 8 4 15 8 15 4 0 8 9 9 20 1 11 -2 18 -6 16
-4 -3 -13 0 -21 5 -12 8 -11 9 4 7 10 -2 21 4 24 12 3 8 1 12 -4 7 -4 -4 -14
5 -21 20 -13 27 -13 27 -9 3 5 -24 5 -24 -10 -5 -8 11 -13 30 -11 43 2 12 0
22 -5 22 -5 0 -7 4 -4 9 3 5 -2 8 -12 7 -16 -1 -18 4 -21 52 -1 15 -10 26 -28
33 -16 6 -23 13 -16 16 8 3 9 12 3 28 -5 12 -6 26 -3 29 4 3 -1 6 -10 6 -10 0
-15 7 -12 20 2 11 -1 20 -7 20 -5 0 -8 7 -4 15 3 8 1 27 -4 41 -8 20 -13 24
-24 15 -15 -13 -27 -5 -19 15 3 8 0 14 -7 14 -6 0 -8 6 -5 13 4 6 -1 3 -9 -7
-15 -19 -16 -18 -16 17 0 26 -4 37 -15 37 -8 0 -15 5 -15 10 0 6 -5 10 -11 10
-11 0 -39 25 -40 36 0 4 5 11 13 15 10 7 9 9 -4 9 -9 0 -21 7 -26 16 -5 9 -12
15 -15 15 -22 -3 -29 1 -24 13 7 18 -11 36 -29 29 -9 -3 -14 2 -14 17 0 16 -4
20 -15 16 -10 -4 -22 5 -34 24 -10 17 -21 27 -25 23 -4 -4 -5 5 -2 20 3 16 1
25 -5 22 -5 -4 -7 -10 -4 -15 9 -15 -9 -19 -22 -5 -10 10 -9 14 2 19 8 3 15
11 14 18 0 10 -2 10 -6 1 -2 -7 -9 -13 -14 -13 -6 0 -7 6 -3 13 5 7 1 7 -12
-3 -10 -8 -16 -11 -12 -6 4 4 -6 20 -20 34 -15 15 -26 35 -24 45 2 9 -2 17 -8
17 -6 0 -8 4 -5 10 3 6 -1 7 -9 4 -9 -3 -16 -2 -16 4 0 6 6 13 13 15 7 3 5 6
-5 6 -10 1 -18 4 -19 9 -5 49 -16 72 -35 72 -13 0 -14 3 -5 14 9 11 9 16 0 22
-7 4 -9 3 -5 -4 8 -13 -9 -24 -44 -28 -24 -3 -27 0 -23 19 4 18 3 19 -6 7 -7
-10 -11 -11 -11 -2 0 6 -7 12 -16 12 -8 0 -12 5 -9 10 9 14 -8 12 -24 -2 -11
-10 -13 -10 -7 0 4 7 1 12 -8 12 -9 0 -15 6 -13 13 1 6 -5 12 -13 12 -17 1
-60 24 -45 25 6 0 17 -6 24 -12 8 -7 6 -1 -4 15 -9 15 -19 27 -22 27 -2 0 -2
-4 1 -9 3 -5 -5 -8 -19 -8 -13 0 -24 2 -23 6 0 3 0 15 -2 26 l-1 20 -9 -20
c-8 -19 -9 -19 -9 3 -1 24 -11 28 -28 11 -8 -8 -17 -5 -32 10 -12 12 -27 19
-33 15 -7 -4 -8 -3 -4 5 4 6 0 14 -8 17 -9 3 -16 15 -16 26 0 10 -5 16 -10 13
-6 -4 -7 -12 -3 -18 4 -7 0 -6 -10 2 -9 7 -17 20 -17 27 0 8 -9 14 -21 14 -13
0 -18 4 -13 13 5 8 2 7 -10 -2 -14 -12 -19 -12 -29 -1 -8 8 -8 11 -1 7 7 -4
18 1 25 11 13 15 12 16 -3 3 -10 -7 -18 -9 -18 -4 0 5 -6 10 -14 10 -8 0 -12
-6 -9 -15 5 -12 2 -12 -16 -3 -12 7 -19 17 -16 24 4 7 0 4 -8 -6 -9 -10 -18
-14 -21 -8 -3 5 -1 11 6 13 6 2 8 10 4 17 -6 9 -11 9 -22 0 -12 -10 -13 -9 -8
5 7 19 -7 21 -24 4 -9 -9 -16 -7 -31 6 -11 10 -25 15 -31 11 -7 -4 -14 2 -17
14 -5 20 -7 20 -28 7 -21 -14 -22 -13 -19 10 1 13 -2 22 -7 18 -5 -3 -9 -13
-9 -22 0 -14 -2 -14 -9 -3 -5 7 -14 10 -20 7 -6 -4 -11 0 -11 11 0 15 -2 16
-10 3 -8 -13 -10 -13 -10 2 0 9 -5 20 -12 24 -6 4 -8 3 -5 -3 4 -6 0 -13 -8
-16 -9 -4 -12 -1 -8 9 3 8 -1 14 -11 14 -9 0 -16 -4 -16 -9 0 -11 -30 -19 -48
-14 -6 3 -10 8 -7 12 2 5 -7 6 -20 3 -15 -2 -25 0 -25 7 0 7 -4 9 -10 6 -5 -3
-10 -1 -10 5 0 7 -7 9 -16 6 -8 -3 -12 -2 -9 3 3 5 1 12 -4 15 -5 4 -12 2 -16
-4 -4 -6 -10 -8 -15 -5 -4 3 -10 -2 -14 -10 -3 -8 -1 -15 5 -15 6 0 4 -7 -5
-15 -18 -18 -26 -19 -26 -2 0 6 -11 17 -24 23 -21 10 -23 9 -18 -4 3 -9 1 -13
-5 -9 -6 4 -14 1 -16 -5 -4 -10 -6 -10 -6 0 -1 15 -33 16 -49 0 -9 -9 -15 -9
-24 1 -9 10 -9 12 -1 7 6 -3 14 -3 17 2 9 15 -49 9 -60 -6 -9 -12 -13 -13 -19
-2 -5 9 -4 11 3 6 7 -4 12 -2 12 4 0 6 -8 10 -17 9 -19 -2 -45 6 -77 22 -13 7
-16 7 -11 0z m-563 -233 c-7 -7 -8 -16 -2 -23 6 -7 3 -11 -11 -11 -10 0 -19 2
-19 5 0 7 32 41 39 41 3 0 0 -5 -7 -12z m-332 -219 c0 -6 -4 -7 -10 -4 -5 3
-10 11 -10 16 0 6 5 7 10 4 6 -3 10 -11 10 -16z m-369 -422 c-10 -9 -11 -8 -5
6 3 10 9 15 12 12 3 -3 0 -11 -7 -18z m-228 -355 c-13 -8 -37 -62 -34 -75 1
-5 -3 -6 -8 -3 -12 8 26 86 42 86 9 0 9 -2 0 -8z m-85 -287 c-3 -3 -9 2 -12
12 -6 14 -5 15 5 6 7 -7 10 -15 7 -18z m3822 -991 c0 -8 -19 -13 -24 -6 -3 5
1 9 9 9 8 0 15 -2 15 -3z"/>
<path d="M4147 6179 c7 -7 15 -10 18 -7 3 3 -2 9 -12 12 -14 6 -15 5 -6 -5z"/>
<path d="M4470 6006 c0 -2 7 -7 16 -10 8 -3 12 -2 9 4 -6 10 -25 14 -25 6z"/>
<path d="M2450 5895 c-7 -8 -9 -15 -4 -15 5 0 2 -5 -6 -10 -13 -8 -12 -10 4
-10 11 0 16 5 13 14 -3 7 0 19 6 25 6 6 8 11 5 11 -3 0 -11 -7 -18 -15z"/>
<path d="M2360 5735 c0 -8 4 -15 10 -15 5 0 7 7 4 15 -4 8 -8 15 -10 15 -2 0
-4 -7 -4 -15z"/>
<path d="M1737 4616 c-10 -8 -14 -16 -10 -19 5 -3 14 3 21 14 14 22 13 23 -11
5z"/>
<path d="M1717 4575 c3 -8 9 -12 14 -9 12 7 11 11 -5 17 -10 4 -13 1 -9 -8z"/>
<path d="M1671 4404 c0 -11 3 -14 6 -6 3 7 2 16 -1 19 -3 4 -6 -2 -5 -13z"/>
<path d="M5665 3789 c-4 -6 -5 -12 -2 -15 2 -3 7 2 10 11 7 17 1 20 -8 4z"/>
<path d="M5656 3744 c-8 -21 -8 -24 5 -24 5 0 8 4 5 9 -4 5 -1 11 6 13 8 3 9
6 1 11 -6 4 -14 0 -17 -9z"/>
</g>
</svg>
